<svg xmlns="http://www.w3.org/2000/svg" version="1.1" xmlns:xlink="http://www.w3.org/1999/xlink" xmlns:svgjs="http://svgjs.dev/svgjs" width="1500" height="799" viewBox="0 0 1500 799"><g transform="matrix(1,0,0,1,-0.9090909090909918,-0.0281608339321906)"><svg viewBox="0 0 396 211" data-background-color="#ffffff" preserveAspectRatio="xMidYMid meet" height="799" width="1500" xmlns="http://www.w3.org/2000/svg" xmlns:xlink="http://www.w3.org/1999/xlink"><g id="tight-bounds" transform="matrix(1,0,0,1,0.2400000000000091,0.007436715844420405)"><svg viewBox="0 0 395.52 210.98470779504999" height="210.98470779504999" width="395.52"><g><svg viewBox="0 0 395.52 210.98470779504999" height="210.98470779504999" width="395.52"><g transform="matrix(1,0,0,1,0,138.77042485919563)"><svg viewBox="0 0 395.52 72.21428293585436" height="72.21428293585436" width="395.52"><g id="textblocktransform"><svg viewBox="0 0 395.52 72.21428293585436" height="72.21428293585436" width="395.52" id="textblock"><g><svg viewBox="0 0 395.52 72.21428293585436" height="72.21428293585436" width="395.52"><g transform="matrix(1,0,0,1,0,0)"><svg width="395.52" viewBox="2.166625501936239 -26.47365 195.650992642292 35.72208282237691" height="72.21428293585436" data-palette-color="#096a2e"><path d="M17.662 8.904v0c-4.203 0.655-7.666 0.206-10.391-1.346-2.717-1.547-4.345-4.046-4.883-7.498v0c-0.394-2.529-0.261-4.945 0.398-7.247 0.667-2.303 1.757-4.4 3.271-6.289 1.52-1.89 3.397-3.461 5.631-4.714 2.233-1.259 4.726-2.103 7.479-2.532v0c1.765-0.275 3.456-0.383 5.071-0.324 1.615 0.059 2.919 0.267 3.913 0.624v0l-0.664 7.3-3.478 0.734-0.997-4.51c-0.644-0.19-1.256-0.287-1.837-0.291-0.588-0.009-1.199 0.035-1.831 0.134v0c-1.798 0.28-3.27 0.965-4.416 2.054-1.14 1.082-1.991 2.378-2.552 3.89-0.554 1.51-0.894 3.054-1.018 4.632-0.133 1.573-0.101 2.991 0.096 4.256v0c0.375 2.404 1.28 4.254 2.717 5.548 1.431 1.302 3.111 1.802 5.041 1.501v0c0.191-0.03 0.379-0.076 0.566-0.139 0.179-0.062 0.379-0.123 0.599-0.184 0.219-0.068 0.418-0.133 0.597-0.194v0l-1.587 2.868 0.238-4.702c0.015-0.292 0.022-0.705 0.02-1.238-0.002-0.533 0.007-1.06 0.026-1.583 0.013-0.522 0.014-0.927 0.003-1.215v0l-3.46-0.382 0.276-2.907 13.704-2.136-0.004 2.764-2.56 1.37c-0.06 0.434-0.116 1.01-0.166 1.726-0.049 0.723-0.087 1.41-0.113 2.062v0c-0.002 0.419-0.007 1.017-0.014 1.794-0.006 0.784 0.014 1.543 0.061 2.278v0c-1.061 0.685-2.123 1.289-3.189 1.812-1.066 0.517-2.149 0.952-3.247 1.306-1.093 0.346-2.193 0.605-3.3 0.778zM40.945 5.421l-10.274 0.968 0.181-2.77 2.633-1.162 12.303-24.009 5.059-3.128 8.394 24.712 2.425 0.686-0.46 2.795-14.377 1.354 0.172-2.768 3.259-1.221-1.712-5.383-0.405-1.74-3.542-9.992 1.483 0.925-4.225 9.418-0.433 1.487-3.063 6.405 3.042 0.628zM39.369-2.145v0l0.556-3.808c0.739-0.043 1.47-0.065 2.193-0.066 0.723-0.001 1.735-0.063 3.036-0.186v0c1.274-0.12 2.317-0.252 3.127-0.395 0.803-0.143 1.556-0.26 2.257-0.353v0l-0.56 3.759c-0.292 0.028-0.845 0.063-1.658 0.106-0.812 0.05-2.048 0.153-3.707 0.309v0c-1.659 0.156-2.886 0.285-3.68 0.387-0.793 0.108-1.315 0.191-1.564 0.247zM70.235 3.047l-10.312 0.41 0.331-2.755 2.691-1.018 13.585-23.308 5.221-2.85 7.044 25.13 2.384 0.816-0.61 2.767-14.429 0.573 0.321-2.755 3.321-1.042-1.418-5.468-0.31-1.759-2.996-10.169 1.431 1.004-4.73 9.175-0.512 1.461-3.405 6.23 3.003 0.792zM69.07-4.593v0l0.761-3.773c0.74-0.003 1.472 0.015 2.194 0.053 0.722 0.038 1.736 0.031 3.042-0.021v0c1.279-0.051 2.327-0.126 3.143-0.225 0.81-0.099 1.568-0.176 2.273-0.23v0l-0.763 3.723c-0.293 0.012-0.847 0.017-1.661 0.016-0.814 0.006-2.053 0.042-3.718 0.108v0c-1.665 0.066-2.897 0.129-3.696 0.187-0.798 0.065-1.323 0.119-1.575 0.162zM116.029 2.553l-15.063-0.472 0.516-2.725 3.147-0.812c0.209-0.507 0.448-1.21 0.717-2.109 0.269-0.905 0.539-1.857 0.81-2.856 0.272-1.005 0.482-1.872 0.631-2.601v0l1.475-5.857c0.551-2.257 0.941-3.942 1.169-5.056 0.228-1.113 0.383-1.892 0.464-2.336v0l-2.903-0.912 0.805-2.706 13.333 0.419c3.518 0.11 6.195 0.785 8.031 2.022 1.835 1.245 2.714 3.113 2.635 5.606v0c-0.051 1.633-0.484 3.093-1.298 4.381-0.807 1.282-1.882 2.375-3.224 3.281-1.336 0.905-2.834 1.585-4.496 2.04-1.669 0.461-3.396 0.664-5.182 0.608v0c-0.706-0.022-1.418-0.101-2.134-0.238-0.716-0.129-1.199-0.248-1.449-0.355v0l0.922-3.573c0.19 0.106 0.547 0.221 1.07 0.344 0.523 0.13 1.121 0.205 1.794 0.226v0c1.633 0.051 2.933-0.588 3.902-1.918 0.969-1.33 1.484-2.972 1.545-4.924v0c0.047-1.499-0.318-2.621-1.095-3.366-0.777-0.745-1.915-1.141-3.414-1.188v0l-0.53-0.017c-0.076 0.284-0.186 0.728-0.332 1.331-0.146 0.602-0.338 1.43-0.578 2.483-0.24 1.046-0.579 2.413-1.019 4.1v0l-1.434 5.858c-0.438 1.841-0.808 3.43-1.111 4.767-0.295 1.338-0.485 2.276-0.568 2.814v0l3.672 0.935zM135.397 3.783v0c-1.562-0.125-2.794-0.775-3.696-1.951-0.902-1.182-1.285-2.617-1.151-4.305v0c0.181-2.266 0.8-4.353 1.856-6.262 1.048-1.902 2.366-3.536 3.953-4.901 1.588-1.371 3.283-2.409 5.084-3.114 1.809-0.705 3.557-0.99 5.245-0.855v0c1.09 0.087 1.999 0.474 2.726 1.161 0.735 0.681 1.44 1.61 2.115 2.788v0l-2.272 1.313c-0.448-0.424-0.949-0.761-1.504-1.013-0.562-0.252-1.145-0.403-1.75-0.451v0c-0.89-0.071-1.732 0.119-2.523 0.57-0.792 0.452-1.504 1.124-2.138 2.016-0.634 0.899-1.145 1.982-1.534 3.249-0.389 1.273-0.647 2.69-0.771 4.252v0c-0.048 0.605-0.007 1.09 0.124 1.454 0.131 0.365 0.356 0.56 0.676 0.586v0c0.286 0.023 0.812-0.363 1.577-1.158 0.772-0.788 1.645-1.841 2.62-3.161 0.968-1.314 1.927-2.769 2.878-4.365 0.944-1.597 1.721-3.203 2.331-4.819v0l1.026-0.159 1.698-1.409 5.602 0.448c-0.714 1.648-1.401 3.302-2.062 4.961-0.662 1.666-1.246 3.251-1.755 4.756-0.501 1.498-0.91 2.803-1.226 3.914-0.31 1.119-0.487 1.947-0.53 2.486v0c0.569-0.336 1.191-0.798 1.867-1.386 0.669-0.589 1.354-1.256 2.056-2.002v0l1.571 2.052c-0.892 1.112-1.956 2.168-3.192 3.165-1.236 0.991-2.509 1.772-3.819 2.343-1.316 0.564-2.562 0.798-3.738 0.705v0c-0.897-0.072-1.578-0.38-2.043-0.926-0.471-0.553-0.67-1.278-0.598-2.175v0c0.043-0.538 0.214-1.3 0.513-2.286 0.307-0.992 0.744-2.234 1.312-3.728 0.567-1.493 1.27-3.249 2.107-5.268v0l0.289 0.023c-1.197 2.921-2.496 5.408-3.898 7.463-1.402 2.055-2.856 3.6-4.363 4.637-1.514 1.029-3.068 1.48-4.663 1.352zM163.816 6.389v0c-1.528-0.189-2.806-0.556-3.833-1.1-1.028-0.544-1.788-1.185-2.281-1.925-0.486-0.739-0.682-1.488-0.588-2.249v0c0.087-0.701 0.337-1.366 0.751-1.993 0.419-0.62 0.915-1.153 1.488-1.599v0c0.994 1.574 2.091 2.862 3.29 3.864 1.199 1.002 2.196 1.552 2.989 1.65v0c0.443 0.055 0.855-0.015 1.236-0.21 0.38-0.195 0.605-0.577 0.676-1.146v0c0.063-0.509-0.107-1.031-0.512-1.564-0.404-0.534-1.366-1.281-2.886-2.242v0c-0.894-0.594-1.636-1.187-2.229-1.778-0.585-0.59-0.999-1.212-1.239-1.866-0.241-0.661-0.314-1.372-0.22-2.133v0c0.201-1.621 0.832-3.004 1.895-4.149 1.055-1.139 2.397-1.97 4.027-2.494 1.63-0.524 3.365-0.671 5.204-0.443v0c1.303 0.161 2.446 0.454 3.428 0.878 0.975 0.43 1.717 0.999 2.227 1.707 0.51 0.708 0.702 1.572 0.576 2.59v0c-0.094 0.761-0.32 1.418-0.678 1.972-0.357 0.547-0.769 1.003-1.237 1.368v0c-1.061-1.844-2.011-3.154-2.849-3.93-0.837-0.782-1.685-1.227-2.545-1.333v0c-0.695-0.086-1.249 0.023-1.663 0.328-0.407 0.299-0.638 0.673-0.694 1.123v0c-0.043 0.344 0.013 0.68 0.168 1.008 0.154 0.328 0.501 0.727 1.04 1.197 0.533 0.469 1.382 1.098 2.548 1.888v0c0.894 0.594 1.61 1.18 2.15 1.758 0.539 0.584 0.917 1.165 1.134 1.742 0.218 0.571 0.286 1.191 0.203 1.859v0c-0.205 1.654-0.853 3.065-1.945 4.233-1.099 1.174-2.488 2.026-4.166 2.557-1.678 0.531-3.5 0.675-5.464 0.432zM183.183 9.06v0c-1.52-0.244-2.784-0.657-3.792-1.237-1.007-0.58-1.744-1.249-2.209-2.006-0.459-0.756-0.628-1.512-0.507-2.269v0c0.112-0.698 0.386-1.353 0.822-1.965 0.441-0.604 0.956-1.119 1.545-1.544v0c0.937 1.609 1.986 2.936 3.148 3.979 1.162 1.044 2.139 1.63 2.929 1.757v0c0.441 0.071 0.855 0.016 1.242-0.165 0.387-0.181 0.626-0.554 0.716-1.12v0c0.081-0.507-0.07-1.034-0.454-1.583-0.385-0.548-1.319-1.329-2.804-2.344v0c-0.872-0.626-1.593-1.245-2.163-1.857-0.564-0.61-0.954-1.247-1.172-1.91-0.217-0.669-0.264-1.383-0.142-2.139v0c0.259-1.613 0.94-2.972 2.043-4.078 1.095-1.1 2.467-1.883 4.114-2.347 1.648-0.464 3.387-0.55 5.217-0.256v0c1.297 0.208 2.428 0.542 3.394 1.001 0.958 0.465 1.68 1.06 2.164 1.786 0.484 0.726 0.645 1.596 0.482 2.61v0c-0.122 0.757-0.371 1.406-0.748 1.946-0.376 0.534-0.805 0.975-1.286 1.323v0c-0.994-1.882-1.896-3.225-2.705-4.031-0.808-0.812-1.64-1.286-2.496-1.423v0c-0.691-0.111-1.249-0.022-1.673 0.267-0.417 0.284-0.661 0.65-0.734 1.098v0c-0.055 0.342-0.011 0.68 0.131 1.014 0.142 0.333 0.475 0.745 0.997 1.233 0.516 0.488 1.342 1.147 2.477 1.978v0c0.872 0.626 1.567 1.238 2.086 1.834 0.518 0.603 0.874 1.197 1.071 1.783 0.197 0.579 0.243 1.2 0.136 1.865v0c-0.264 1.646-0.963 3.032-2.097 4.16-1.141 1.133-2.559 1.935-4.255 2.406-1.696 0.47-3.522 0.548-5.477 0.234z" opacity="1" transform="matrix(1,0,0,1,0,0)" fill="#096a2e" class="wordmark-text-0" data-fill-palette-color="primary" id="text-0"></path></svg></g></svg></g></svg></g></svg></g><g transform="matrix(1,0,0,1,139.33864510489383,0)"><svg viewBox="0 0 116.84270979021235 116.84270979021235" height="116.84270979021235" width="116.84270979021235"><g><svg xmlns="http://www.w3.org/2000/svg" xmlns:xlink="http://www.w3.org/1999/xlink" version="1.1" x="0" y="0" viewBox="1.5 1.5 29 29" enable-background="new 0 0 32 32" xml:space="preserve" height="116.84270979021235" width="116.84270979021235" class="icon-icon-0" data-fill-palette-color="accent" id="icon-0"><g fill="#8abe53" data-fill-palette-color="accent"><path d="M16 1.5C8.005 1.5 1.5 8.005 1.5 16S8.005 30.5 16 30.5 30.5 23.995 30.5 16 23.995 1.5 16 1.5zM21.272 28.427L18.809 23.5h2.911c0.318 0 0.619-0.065 0.904-0.164l1.961 2.941c0.02 0.029 0.05 0.043 0.074 0.067C23.644 27.195 22.506 27.901 21.272 28.427zM21.72 22.5H10.28c-0.981 0-1.78-0.799-1.78-1.78V19.19c1.949 0.836 4.625 1.31 7.5 1.31s5.551-0.473 7.5-1.31v1.529C23.5 21.701 22.701 22.5 21.72 22.5zM7.342 26.344c0.024-0.024 0.055-0.038 0.074-0.067l1.961-2.941C9.661 23.435 9.962 23.5 10.28 23.5h3.026l-1.745 5.235C10.007 28.192 8.579 27.382 7.342 26.344zM8.5 13.906c1.822-0.884 4.594-1.406 7.5-1.406s5.678 0.522 7.5 1.406v4.188C21.678 18.978 18.906 19.5 16 19.5s-5.678-0.522-7.5-1.406V13.906zM23.5 12.81c-1.949-0.836-4.625-1.31-7.5-1.31s-5.551 0.473-7.5 1.31V12.28c0-0.981 0.799-1.78 1.78-1.78H21.72c0.981 0 1.78 0.799 1.78 1.78V12.81zM11.556 3.267L13.337 9.5H10.28c-0.314 0-0.61 0.064-0.891 0.16L7.447 5.776c-0.025-0.05-0.061-0.09-0.099-0.127C8.582 4.616 10.007 3.809 11.556 3.267zM21.72 9.5h-3.073c0.728-2.787 1.531-5.702 1.741-6.185 0.014-0.017 0.021-0.039 0.033-0.057 1.559 0.542 2.991 1.353 4.232 2.392-0.038 0.037-0.074 0.077-0.099 0.126L22.611 9.66C22.33 9.564 22.033 9.5 21.72 9.5zM19.469 2.969c-0.304 0.679-0.776 2.37-1.856 6.531h-3.236l-1.865-6.527C13.627 2.674 14.792 2.5 16 2.5 17.201 2.5 18.36 2.673 19.469 2.969zM2.5 16c0-3.793 1.577-7.219 4.104-9.674l1.912 3.824C7.901 10.66 7.5 11.42 7.5 12.28V13.6 18.4v2.319c0 0.855 0.396 1.611 1.005 2.122l-1.893 2.84C4.081 23.226 2.5 19.797 2.5 16zM12.518 29.028l1.843-5.528h3.33l2.638 5.275C18.968 29.238 17.515 29.5 16 29.5 14.794 29.5 13.631 29.326 12.518 29.028zM25.388 25.681l-1.893-2.84c0.609-0.51 1.005-1.267 1.005-2.122V18.4 13.6 12.28c0-0.86-0.401-1.62-1.016-2.131l1.912-3.824C27.923 8.781 29.5 12.207 29.5 16 29.5 19.797 27.919 23.226 25.388 25.681z" fill="#8abe53" data-fill-palette-color="accent"></path></g></svg></g></svg></g><g></g></svg></g><defs></defs></svg><rect width="395.52" height="210.98470779504999" fill="none" stroke="none" visibility="hidden"></rect></g></svg></g></svg>